GIL06_slow2_ik
nRows=3
nColumns=375

# SIMM Motion File Header:
name GIL06_slow2_ik
datacolumns 375
datarows 3
otherdata 1
range 1.08333000 1.10000000
endheader
time	pelvis_tx	pelvis_ty	pelvis_tz	pelvis_tilt	pelvis_list	pelvis_rotation	hip_flexion_r	hip_adduction_r	hip_rotation_r	knee_angle_r	ankle_angle_r	hip_flexion_l	hip_adduction_l	hip_rotation_l	knee_angle_l	ankle_angle_l	lumbar_extension	lumbar_bending	lumbar_rotation	subtalar_angle_r	mtp_angle_r	subtalar_angle_l	mtp_angle_l	asis_r_px	asis_r_py	asis_r_pz	asis_l_px	asis_l_py	asis_l_pz	midasis_px	midasis_py	midasis_pz	psis_r_px	psis_r_py	psis_r_pz	psis_l_px	psis_l_py	psis_l_pz	hip_r_px	hip_r_py	hip_r_pz	hip_l_px	hip_l_py	hip_l_pz	midhip_px	midhip_py	midhip_pz	epicondLat_r_px	epicondLat_r_py	epicondLat_r_pz	epicondMed_r_px	epicondMed_r_py	epicondMed_r_pz	thighwand_r_px	thighwand_r_py	thighwand_r_pz	upperleg1_r_px	upperleg1_r_py	upperleg1_r_pz	upperleg2_r_px	upperleg2_r_py	upperleg2_r_pz	malleolusLat_r_px	malleolusLat_r_py	malleolusLat_r_pz	malleolusMedv_r_px	malleolusMedv_r_py	malleolusMedv_r_pz	shankwand_r_px	shankwand_r_py	shankwand_r_pz	lowerleg1_r_px	lowerleg1_r_py	lowerleg1_r_pz	knee_r_px	knee_r_py	knee_r_pz	ankle_r_px	ankle_r_py	ankle_r_pz	toe_r_px	toe_r_py	toe_r_pz	epicondLat_l_px	epicondLat_l_py	epicondLat_l_pz	epicondMed_l_px	epicondMed_l_py	epicondMed_l_pz	thighwand_l_px	thighwand_l_py	thighwand_l_pz	upperleg1_l_px	upperleg1_l_py	upperleg1_l_pz	upperleg2_l_px	upperleg2_l_py	upperleg2_l_pz	malleolusLat_l_px	malleolusLat_l_py	malleolusLat_l_pz	malleolusMedv_l_px	malleolusMedv_l_py	malleolusMedv_l_pz	shankwand_l_px	shankwand_l_py	shankwand_l_pz	lowerleg1_l_px	lowerleg1_l_py	lowerleg1_l_pz	knee_l_px	knee_l_py	knee_l_pz	ankle_l_px	ankle_l_py	ankle_l_pz	toe_l_px	toe_l_py	toe_l_pz	subclavicle_r_px	subclavicle_r_py	subclavicle_r_pz	subclavicle_l_px	subclavicle_l_py	subclavicle_l_pz	neck_px	neck_py	neck_pz	sternalnotch_px	sternalnotch_py	sternalnotch_pz	xyphoidprocess_px	xyphoidprocess_py	xyphoidprocess_pz	midhip_tx	midhip_ty	midhip_tz	hip_r_tx	hip_r_ty	hip_r_tz	hip_l_tx	hip_l_ty	hip_l_tz	knee_r_tx	knee_r_ty	knee_r_tz	knee_l_tx	knee_l_ty	knee_l_tz	ankle_r_tx	ankle_r_ty	ankle_r_tz	ankle_l_tx	ankle_l_ty	ankle_l_tz	midasis_tx	midasis_ty	midasis_tz	asis_r_tx	asis_r_ty	asis_r_tz	asis_l_tx	asis_l_ty	asis_l_tz	psis_r_tx	psis_r_ty	psis_r_tz	psis_l_tx	psis_l_ty	psis_l_tz	epicondLat_r_tx	epicondLat_r_ty	epicondLat_r_tz	epicondLat_l_tx	epicondLat_l_ty	epicondLat_l_tz	epicondMed_r_tx	epicondMed_r_ty	epicondMed_r_tz	epicondMed_l_tx	epicondMed_l_ty	epicondMed_l_tz	malleolusLat_r_tx	malleolusLat_r_ty	malleolusLat_r_tz	malleolusLat_l_tx	malleolusLat_l_ty	malleolusLat_l_tz	malleolusMedv_r_tx	malleolusMedv_r_ty	malleolusMedv_r_tz	malleolusMedv_l_tx	malleolusMedv_l_ty	malleolusMedv_l_tz	neck_tx	neck_ty	neck_tz	subclavicle_r_tx	subclavicle_r_ty	subclavicle_r_tz	subclavicle_l_tx	subclavicle_l_ty	subclavicle_l_tz	sternalnotch_tx	sternalnotch_ty	sternalnotch_tz	xyphoidprocess_tx	xyphoidprocess_ty	xyphoidprocess_tz	thighwand_r_tx	thighwand_r_ty	thighwand_r_tz	thighwand_l_tx	thighwand_l_ty	thighwand_l_tz	upperleg1_r_tx	upperleg1_r_ty	upperleg1_r_tz	upperleg1_l_tx	upperleg1_l_ty	upperleg1_l_tz	upperleg2_r_tx	upperleg2_r_ty	upperleg2_r_tz	upperleg2_l_tx	upperleg2_l_ty	upperleg2_l_tz	shankwand_r_tx	shankwand_r_ty	shankwand_r_tz	shankwand_l_tx	shankwand_l_ty	shankwand_l_tz	lowerleg1_r_tx	lowerleg1_r_ty	lowerleg1_r_tz	lowerleg1_l_tx	lowerleg1_l_ty	lowerleg1_l_tz	toe_r_tx	toe_r_ty	toe_r_tz	toe_l_tx	toe_l_ty	toe_l_tz	ground_force_vx	ground_force_vy	ground_force_vz	ground_force_px	ground_force_py	ground_force_pz	ground_force_vx	ground_force_vy	ground_force_vz	ground_force_px	ground_force_py	ground_force_pz	ground_torque_x	ground_torque_y	ground_torque_z	ground_torque_x	ground_torque_y	ground_torque_z	ground_marker_px	ground_marker_py	ground_marker_pz	ground_marker_px	ground_marker_py	ground_marker_pz	ground_marker_px	ground_marker_py	ground_marker_pz	ground_marker_px	ground_marker_py	ground_marker_pz	ground_marker_px	ground_marker_py	ground_marker_pz	ground_marker_px	ground_marker_py	ground_marker_pz	ground_marker_px	ground_marker_py	ground_marker_pz	ground_marker_px	ground_marker_py	ground_marker_pz	ground_marker_px	ground_marker_py	ground_marker_pz	ground_marker_px	ground_marker_py	ground_marker_pz	ground_marker_px	ground_marker_py	ground_marker_pz	ground_marker_px	ground_marker_py	ground_marker_pz	ground_marker_px	ground_marker_py	ground_marker_pz	ground_marker_px	ground_marker_py	ground_marker_pz	ground_marker_px	ground_marker_py	ground_marker_pz	ground_marker_px	ground_marker_py	ground_marker_pz	ground_marker_px	ground_marker_py	ground_marker_pz	ground_marker_px	ground_marker_py	ground_marker_pz	ground_marker_px	ground_marker_py	ground_marker_pz	ground_marker_px	ground_marker_py	ground_marker_pz	ground_marker_px	ground_marker_py	ground_marker_pz	ground_marker_px	ground_marker_py	ground_marker_pz	ground_marker_px	ground_marker_py	ground_marker_pz	ground_marker_px	ground_marker_py	ground_marker_pz	ground_marker_px	ground_marker_py	ground_marker_pz	ground_marker_px	ground_marker_py	ground_marker_pz	ground_marker_px	ground_marker_py	ground_marker_pz	ground_marker_px	ground_marker_py	ground_marker_pz	ground_marker_px	ground_marker_py	ground_marker_pz	ground_marker_px	ground_marker_py	ground_marker_pz	ground_marker_px	ground_marker_py	ground_marker_pz	ground_marker_px	ground_marker_py	ground_marker_pz	ground_marker_px	ground_marker_py	ground_marker_pz	ground_marker_px	ground_marker_py	ground_marker_pz	ground_marker_px	ground_marker_py	ground_marker_pz	ground_marker_px	ground_marker_py	ground_marker_pz	ground_marker_px	ground_marker_py	ground_marker_pz
      1.08333000	      2.11951389	      0.84078780	     -0.21716421	     -4.06873545	     -1.89197580	     -0.76675209	      3.98983461	      7.51829867	      1.33382712	     -8.53833748	      4.48146230	     28.77059392	     -5.65489097	      0.84561515	    -50.70384301	      7.28819114	      4.91245181	     -1.08342279	     15.62503055	      0.00000000	      0.00000000	      0.00000000	      0.00000000	      2.17448618	      0.82932848	     -0.09907251	      2.17578620	      0.82023510	     -0.34482153	      2.13292826	      0.83983956	     -0.21698433	      1.94195674	      0.92960774	     -0.19324294	      1.93791105	      0.92620201	     -0.24823322	      2.04638551	      0.78498979	     -0.13581311	      2.04815116	      0.77955473	     -0.29613921	      2.04726834	      0.78227226	     -0.21597616	      2.04795660	      0.39702658	     -0.11397440	      2.02672776	      0.42020549	     -0.25564822	      2.20582150	      0.55141112	     -0.10273594	      2.16681145	      0.57558737	     -0.11940467	      2.13962476	      0.50401446	     -0.13347656	      1.97778378	      0.04626958	     -0.15985690	      1.99424748	      0.05820849	     -0.23385344	      2.08998061	      0.18069665	     -0.16712192	      2.04561918	      0.19415396	     -0.17853634	      2.04331345	      0.41968099	     -0.17144642	      1.98866737	      0.05706361	     -0.20618509	      2.09537063	      0.02387922	     -0.18884014	      2.19895258	      0.43999050	     -0.38705681	      2.20987547	      0.41944590	     -0.24027492	      2.29071859	      0.67397165	     -0.32501055	      2.24097869	      0.66875292	     -0.32933454	      2.25495096	      0.59621929	     -0.33078590	      2.01834294	      0.11355066	     -0.37863190	      2.04491863	      0.11507961	     -0.30323673	      2.05111109	      0.22496683	     -0.43688952	      2.06244463	      0.22989053	     -0.38958564	      2.20659949	      0.44241565	     -0.31972157	      2.04481324	      0.11197089	     -0.33749244	      2.12824039	      0.06139900	     -0.36623799	      2.08990789	      1.28256990	     -0.20367903	      2.07708783	      1.28225954	     -0.28459971	      1.94585954	      1.32583809	     -0.22029737	      2.06619444	      1.27405286	     -0.25369198	      2.12971135	      1.21075204	     -0.26229978	      2.04280900	      0.77434200	     -0.22715400	      2.02267900	      0.77954400	     -0.14826400	      2.02423400	      0.77680600	     -0.30386200	      2.02846600	      0.41882300	     -0.18779800	      2.19129800	      0.42603900	     -0.34176300	      1.98175700	      0.06122400	     -0.21018700	      2.04168200	      0.10243200	     -0.30440100	      2.15037900	      0.85182100	     -0.22609100	      2.14913700	      0.85400900	     -0.10174200	      2.15162200	      0.84963300	     -0.35044000	      1.90530300	      0.92199200	     -0.19856100	      1.90496900	      0.91775900	     -0.25341600	      2.02957400	      0.41105200	     -0.11673100	      2.18997300	      0.43309400	     -0.41290200	      2.01442200	      0.43627500	     -0.26124200	      2.20338600	      0.40807400	     -0.25710100	      1.97645300	      0.05953200	     -0.17209200	      2.02490900	      0.10607900	     -0.33997600	      1.98320200	      0.07392000	     -0.24631900	      2.04648600	      0.12195100	     -0.26502400	      1.95827600	      1.35082600	     -0.22543100	      2.08114500	      1.27638500	     -0.19894400	      2.07568000	      1.28068200	     -0.28012700	      2.06062900	      1.27449000	     -0.25081600	      2.10747000	      1.19815200	     -0.25675300	      2.18400600	      0.55915900	     -0.09286000	      2.27753600	      0.66923900	     -0.32339300	      2.14905200	      0.58572800	     -0.11295200	      2.23010100	      0.66171600	     -0.33338000	      2.11923300	      0.51510200	     -0.12921100	      2.24805800	      0.59091300	     -0.33571600	      2.08567900	      0.19119400	     -0.18301800	      2.06147900	      0.19814600	     -0.41764100	      2.03865300	      0.20452000	     -0.18848900	      2.07024000	      0.21273900	     -0.37309500	      2.09183700	      0.04372500	     -0.20425000	      2.12913700	      0.06472600	     -0.32392700	     -9.25845333	    754.64813417	    -17.40993218	      2.04437476	      0.00000000	     -0.20979227	      0.00000000	      0.00000000	      0.00000000	      1.65167761	      0.00000000	     -0.27337686	      0.00000000	      1.79182068	      0.00000000	      0.00000000	      0.00000000	      0.00000000	      2.04280853	      0.77434242	     -0.22715420	      2.02267861	      0.77954358	     -0.14826448	      2.02423358	      0.77680570	     -0.30386177	      2.02846551	      0.41882297	     -0.18779840	      2.19129848	      0.42603883	     -0.34176329	      1.98175681	      0.06122436	     -0.21018706	      2.04168200	      0.10243223	     -0.30440062	      2.15037918	      0.85182059	     -0.22609068	      2.14913678	      0.85400862	     -0.10174174	      2.15162182	      0.84963250	     -0.35043964	      1.90530348	      0.92199188	     -0.19856097	      1.90496933	      0.91775864	     -0.25341552	      2.02957392	      0.41105193	     -0.11673061	      2.18997312	      0.43309432	     -0.41290194	      2.01442170	      0.43627474	     -0.26124200	      2.20338583	      0.40807414	     -0.25710076	      1.97645283	      0.05953208	     -0.17209174	      2.02490950	      0.10607936	     -0.33997634	      1.98320210	      0.07391992	     -0.24631935	      2.04648566	      0.12195107	     -0.26502371	      1.95827556	      1.35082614	     -0.22543061	      2.08114457	      1.27638459	     -0.19894373	      2.07568049	      1.28068161	     -0.28012690	      2.06062889	      1.27449012	     -0.25081611	      2.10747004	      1.19815218	     -0.25675273	      2.18400621	      0.55915862	     -0.09285991	      2.27753592	      0.66923916	     -0.32339334	      2.14905190	      0.58572835	     -0.11295177	      2.23010087	      0.66171640	     -0.33338049	      2.11923289	      0.51510233	     -0.12921137	      2.24805808	      0.59091252	     -0.33571553	      2.08567929	      0.19119419	     -0.18301792	      2.06147933	      0.19814631	     -0.41764101	      2.03865337	      0.20451955	     -0.18848905	      2.07024050	      0.21273898	     -0.37309542	      2.09183693	      0.04372483	     -0.20425043	      2.12913680	      0.06472598	     -0.32392678
      1.09167000	      2.12521852	      0.84038288	     -0.21686431	     -4.17698926	     -1.70589488	     -1.06204345	      3.52009425	      7.37502134	      1.52892118	     -8.29969506	      4.79709014	     29.28062423	     -5.30792656	      1.00630281	    -48.55422230	      7.51591523	      5.03687909	     -1.24811501	     15.91159035	      0.00000000	      0.00000000	      0.00000000	      0.00000000	      2.17953561	      0.82848998	     -0.09851259	      2.18214060	      0.82009830	     -0.34427621	      2.13863008	      0.83941086	     -0.21661514	      1.94768840	      0.92944192	     -0.19364155	      1.94393243	      0.92620074	     -0.24866231	      2.05155816	      0.78447907	     -0.13606768	      2.05417601	      0.77950020	     -0.29639695	      2.05286709	      0.78198964	     -0.21623232	      2.04934689	      0.39650816	     -0.11442217	      2.02865895	      0.41995907	     -0.25613124	      2.20866463	      0.54936073	     -0.10275323	      2.16992641	      0.57391940	     -0.11949671	      2.14208375	      0.50261829	     -0.13366550	      1.97740829	      0.04620001	     -0.16067861	      1.99413253	      0.05808797	     -0.23462490	      2.09035864	      0.18001413	     -0.16757398	      2.04610191	      0.19372040	     -0.17909803	      2.04501297	      0.41925287	     -0.17189073	      1.98847318	      0.05695894	     -0.20697200	      2.09509957	      0.02375665	     -0.18919404	      2.20826779	      0.44086345	     -0.38523285	      2.21783971	      0.42062056	     -0.23831478	      2.29775773	      0.67557720	     -0.32263156	      2.24810216	      0.67000308	     -0.32745265	      2.26259577	      0.59756711	     -0.32864574	      2.04211807	      0.10682162	     -0.37859263	      2.06765637	      0.10959348	     -0.30287507	      2.07062837	      0.21953509	     -0.43659353	      2.08114058	      0.22499734	     -0.38915929	      2.21482733	      0.44377779	     -0.31780450	      2.06811682	      0.10645439	     -0.33712508	      2.15423670	      0.05997134	     -0.36481270	      2.09572476	      1.28234386	     -0.20364027	      2.08293316	      1.28202300	     -0.28456542	      1.95167620	      1.32559011	     -0.22031386	      2.07203007	      1.27381812	     -0.25366063	      2.13555885	      1.21052526	     -0.26223932	      2.04843400	      0.77397400	     -0.22748200	      2.02785000	      0.77910900	     -0.14869100	      2.03022200	      0.77668700	     -0.30428300	      2.03028800	      0.41857900	     -0.18820400	      2.20023500	      0.42703400	     -0.33964500	      1.98170900	      0.06123000	     -0.21043600	      2.06467900	      0.09702400	     -0.30460400	      2.15607300	      0.85134300	     -0.22569400	      2.15417700	      0.85328000	     -0.10127200	      2.15796900	      0.84940600	     -0.35011600	      1.91083100	      0.92198900	     -0.19935500	      1.91087700	      0.91762800	     -0.25427300	      2.03117500	      0.41079600	     -0.11713400	      2.19956000	      0.43390400	     -0.41081100	      2.01724900	      0.43334900	     -0.26060600	      2.21211800	      0.40883900	     -0.25415100	      1.97642600	      0.05957800	     -0.17233600	      2.04766600	      0.10024300	     -0.34010700	      1.98307000	      0.07374400	     -0.24655700	      2.06934600	      0.11593200	     -0.26513400	      1.96405800	      1.35064200	     -0.22543900	      2.08677200	      1.27587400	     -0.19858300	      2.08176800	      1.28036300	     -0.28032900	      2.06639700	      1.27421600	     -0.25085700	      2.11329800	      1.19772200	     -0.25665200	      2.18695900	      0.55766300	     -0.09290900	      2.28419400	      0.67059000	     -0.32106400	      2.15040900	      0.58439900	     -0.11336100	      2.23660700	      0.66228600	     -0.33146500	      2.12196400	      0.51425100	     -0.12921500	      2.25532000	      0.59190200	     -0.33330500	      2.08636800	      0.19071200	     -0.18338100	      2.08008400	      0.19452000	     -0.41713400	      2.03931900	      0.20384300	     -0.18876800	      2.08877600	      0.20910300	     -0.37213200	      2.09198900	      0.04372200	     -0.20429700	      2.15368700	      0.06362000	     -0.32466000	     -6.85954704	    755.13908850	    -16.82996157	      2.04675671	      0.00000000	     -0.21043304	      0.00000000	      0.00000000	      0.00000000	      1.65273193	      0.00000000	     -0.27336243	      0.00000000	      2.29131885	      0.00000000	      0.00000000	      0.00000000	      0.00000000	      2.04843378	      0.77397430	     -0.22748163	      2.02785039	      0.77910936	     -0.14869054	      2.03022170	      0.77668685	     -0.30428272	      2.03028822	      0.41857862	     -0.18820372	      2.20023465	      0.42703408	     -0.33964458	      1.98170936	      0.06122993	     -0.21043621	      2.06467867	      0.09702449	     -0.30460429	      2.15607309	      0.85134292	     -0.22569400	      2.15417671	      0.85328013	     -0.10127241	      2.15796924	      0.84940577	     -0.35011560	      1.91083097	      0.92198932	     -0.19935496	      1.91087651	      0.91762811	     -0.25427285	      2.03117514	      0.41079557	     -0.11713412	      2.19956040	      0.43390352	     -0.41081065	      2.01724911	      0.43334886	     -0.26060644	      2.21211815	      0.40883946	     -0.25415069	      1.97642648	      0.05957769	     -0.17233616	      2.04766583	      0.10024308	     -0.34010714	      1.98307049	      0.07374357	     -0.24655728	      2.06934643	      0.11593176	     -0.26513445	      1.96405756	      1.35064209	     -0.22543897	      2.08677197	      1.27587366	     -0.19858301	      2.08176827	      1.28036320	     -0.28032914	      2.06639719	      1.27421629	     -0.25085744	      2.11329818	      1.19772232	     -0.25665227	      2.18695927	      0.55766344	     -0.09290859	      2.28419375	      0.67058969	     -0.32106373	      2.15040898	      0.58439857	     -0.11336096	      2.23660660	      0.66228575	     -0.33146468	      2.12196445	      0.51425052	     -0.12921521	      2.25531960	      0.59190172	     -0.33330479	      2.08636785	      0.19071169	     -0.18338123	      2.08008432	      0.19452049	     -0.41713390	      2.03931880	      0.20384331	     -0.18876804	      2.08877611	      0.20910330	     -0.37213239	      2.09198904	      0.04372193	     -0.20429674	      2.15368748	      0.06362017	     -0.32465997
      1.10000000	      2.13096718	      0.83993823	     -0.21665544	     -4.27856169	     -1.54195535	     -1.35745773	      3.05387391	      7.24492506	      1.69826506	     -8.08340550	      5.11970738	     29.72221956	     -4.98406898	      1.18706073	    -46.30830860	      7.63693200	      5.18220332	     -1.38530294	     16.13785685	      0.00000000	      0.00000000	      0.00000000	      0.00000000	      2.18463064	      0.82766443	     -0.09804471	      2.18853751	      0.81987536	     -0.34381092	      2.14437562	      0.83894368	     -0.21633695	      1.95345981	      0.92922949	     -0.19416197	      1.94999316	      0.92613031	     -0.24920989	      2.05678492	      0.78395547	     -0.13639273	      2.06025287	      0.77936822	     -0.29671755	      2.05851890	      0.78166184	     -0.21655514	      2.05082640	      0.39601481	     -0.11491267	      2.03073356	      0.41971625	     -0.25666567	      2.21155989	      0.54734022	     -0.10276438	      2.17310102	      0.57227280	     -0.11959897	      2.14461853	      0.50124529	     -0.13386984	      1.97704204	      0.04617707	     -0.16153309	      1.99405527	      0.05799944	     -0.23542395	      2.09078086	      0.17934155	     -0.16803307	      2.04663838	      0.19330721	     -0.17968321	      2.04682612	      0.41883918	     -0.17238111	      1.98830692	      0.05689145	     -0.20778857	      2.09484242	      0.02365666	     -0.18953282	      2.21724451	      0.44151970	     -0.38345245	      2.22540843	      0.42154006	     -0.23641341	      2.30469987	      0.67684386	     -0.32027004	      2.25513063	      0.67097081	     -0.32559809	      2.27006086	      0.59861980	     -0.32653442	      2.06608653	      0.10044256	     -0.37836655	      2.09050745	      0.10444168	     -0.30233588	      2.09023454	      0.21426280	     -0.43618603	      2.09988516	      0.22024322	     -0.38863134	      2.22267527	      0.44489398	     -0.31594596	      2.09154500	      0.10128992	     -0.33657211	      2.18009907	      0.05889278	     -0.36311589	      2.10137731	      1.28209774	     -0.20363206	      2.08869683	      1.28176633	     -0.28457466	      1.95732347	      1.32524928	     -0.22050422	      2.07775676	      1.27355516	     -0.25368461	      2.14133865	      1.21030364	     -0.26217447	      2.05412700	      0.77357300	     -0.22784200	      2.03309100	      0.77867200	     -0.14915000	      2.03626700	      0.77649400	     -0.30473200	      2.03223500	      0.41831600	     -0.18860800	      2.20877700	      0.42786100	     -0.33750400	      1.98169600	      0.06123900	     -0.21068400	      2.08778000	      0.09200700	     -0.30474000	      2.16181700	      0.85083900	     -0.22537200	      2.15927700	      0.85258200	     -0.10091300	      2.16435800	      0.84909600	     -0.34983000	      1.91636900	      0.92195500	     -0.20021300	      1.91681000	      0.91744600	     -0.25517400	      2.03287700	      0.41053300	     -0.11753500	      2.20877100	      0.43455000	     -0.40869100	      2.01986600	      0.43327900	     -0.26126500	      2.21646200	      0.41023300	     -0.25211000	      1.97643200	      0.05962800	     -0.17257900	      2.07054300	      0.09476000	     -0.34017400	      1.98294200	      0.07389500	     -0.24679700	      2.09138600	      0.11111300	     -0.26507300	      1.96950400	      1.35043300	     -0.22557600	      2.09234700	      1.27520300	     -0.19846000	      2.08777000	      1.27975000	     -0.28060800	      2.07218600	      1.27388700	     -0.25089800	      2.11903900	      1.19703500	     -0.25660200	      2.18996000	      0.55616600	     -0.09292900	      2.29072400	      0.67169600	     -0.31872500	      2.15350500	      0.58330900	     -0.11325000	      2.24376500	      0.66344500	     -0.33005800	      2.12479300	      0.51311700	     -0.12951000	      2.26232600	      0.59245800	     -0.33115300	      2.08711800	      0.19020100	     -0.18373900	      2.09863900	      0.19103900	     -0.41658500	      2.04033000	      0.20351400	     -0.18894200	      2.10657500	      0.20594300	     -0.37146800	      2.09212900	      0.04371700	     -0.20436800	      2.17815200	      0.06285200	     -0.32527500	     -4.46262745	    755.70656316	    -16.34504344	      2.04927026	      0.00000000	     -0.21105954	      0.00000000	      0.00000000	      0.00000000	      1.65388135	      0.00000000	     -0.27335101	      0.00000000	      2.79108301	      0.00000000	      0.00000000	      0.00000000	      0.00000000	      2.05412722	      0.77357340	     -0.22784248	      2.03309083	      0.77867228	     -0.14915027	      2.03626657	      0.77649355	     -0.30473173	      2.03223467	      0.41831648	     -0.18860759	      2.20877743	      0.42786130	     -0.33750439	      1.98169553	      0.06123898	     -0.21068364	      2.08777952	      0.09200744	     -0.30473962	      2.16181731	      0.85083944	     -0.22537169	      2.15927696	      0.85258240	     -0.10091295	      2.16435766	      0.84909648	     -0.34983042	      1.91636860	      0.92195535	     -0.20021291	      1.91681039	      0.91744554	     -0.25517365	      2.03287673	      0.41053289	     -0.11753543	      2.20877051	      0.43454966	     -0.40869090	      2.01986599	      0.43327913	     -0.26126504	      2.21646214	      0.41023347	     -0.25211009	      1.97643197	      0.05962818	     -0.17257920	      2.07054305	      0.09476046	     -0.34017360	      1.98294199	      0.07389493	     -0.24679686	      2.09138560	      0.11111251	     -0.26507306	      1.96950364	      1.35043311	     -0.22557555	      2.09234691	      1.27520251	     -0.19846015	      2.08777046	      1.27974951	     -0.28060824	      2.07218552	      1.27388728	     -0.25089830	      2.11903858	      1.19703519	     -0.25660190	      2.18995976	      0.55616605	     -0.09292946	      2.29072428	      0.67169613	     -0.31872541	      2.15350509	      0.58330905	     -0.11324952	      2.24376464	      0.66344517	     -0.33005828	      2.12479305	      0.51311678	     -0.12951028	      2.26232553	      0.59245783	     -0.33115256	      2.08711815	      0.19020069	     -0.18373898	      2.09863853	      0.19103882	     -0.41658548	      2.04032969	      0.20351446	     -0.18894176	      2.10657501	      0.20594348	     -0.37146789	      2.09212923	      0.04371677	     -0.20436768	      2.17815232	      0.06285245	     -0.32527548
